<svg width="25" height="25" fill="none" xmlns="http://www.w3.org/2000/svg"><path d="M12.003 24.055c-3.28 0-3.667-.018-4.947-.074a8.78 8.78 0 01-2.913-.6 6.159 6.159 0 01-3.507-3.508 8.788 8.788 0 01-.559-2.916c-.074-1.277-.074-1.696-.074-4.95 0-3.29.017-3.674.074-4.947.02-.995.21-1.98.559-2.912a6.147 6.147 0 013.51-3.51A8.71 8.71 0 017.06.079C8.332.008 8.75.008 12.003.008c3.306 0 3.686.017 4.946.072a8.765 8.765 0 012.92.56 6.153 6.153 0 013.511 3.509 8.76 8.76 0 01.561 2.956c.075 1.277.075 1.695.075 4.948s-.019 3.68-.075 4.943a8.799 8.799 0 01-.56 2.918 6.165 6.165 0 01-3.512 3.51 8.816 8.816 0 01-2.914.558c-1.274.074-1.691.074-4.952.074zm-.046-21.938c-3.261 0-3.6.016-4.873.074-.76.01-1.513.15-2.225.414a3.985 3.985 0 00-2.292 2.283 6.686 6.686 0 00-.415 2.25c-.07 1.291-.07 1.63-.07 4.869 0 3.2.011 3.588.07 4.872.012.76.152 1.513.415 2.226a3.988 3.988 0 002.292 2.282 6.562 6.562 0 002.225.414c1.29.075 1.63.075 4.873.075 3.271 0 3.61-.016 4.872-.075a6.62 6.62 0 002.227-.414 4 4 0 002.28-2.279 6.722 6.722 0 00.415-2.25h.014c.058-1.275.058-1.615.058-4.873 0-3.257-.015-3.6-.072-4.873a6.743 6.743 0 00-.415-2.224 4 4 0 00-2.28-2.283 6.59 6.59 0 00-2.227-.414c-1.289-.074-1.626-.074-4.872-.074zm.046 16.048A6.164 6.164 0 1118.163 12a6.172 6.172 0 01-6.16 6.165zm0-10.168a4 4 0 104 4 4.01 4.01 0 00-4-4zm6.4-.95a1.437 1.437 0 11.01-2.875 1.437 1.437 0 01-.01 2.875z" fill="#282828"/></svg>