<svg width="28" height="28" viewBox="0 0 28 28" fill="none" xmlns="http://www.w3.org/2000/svg">
<path d="M0.669319 14.0026C0.670871 20.5618 5.44052 26.1467 11.9187 27.1746V17.856H8.53599V14.0026H11.9227V11.0693C11.7713 9.67936 12.246 8.2941 13.2182 7.28922C14.1903 6.28434 15.5591 5.764 16.9533 5.86931C17.954 5.88547 18.9522 5.9746 19.94 6.13598V9.41465H18.2547C17.6744 9.33865 17.0911 9.53028 16.669 9.93553C16.2469 10.3408 16.0317 10.9158 16.084 11.4986V14.0026H19.7787L19.188 17.8573H16.084V27.1746C23.09 26.0674 28.0028 19.669 27.2633 12.6147C26.5239 5.56047 20.391 0.319883 13.3078 0.689549C6.22447 1.05921 0.670445 6.90972 0.669319 14.0026Z" fill="#282828"/>
</svg>
