<svg width="25" height="25" viewBox="0 0 25 25" fill="none" xmlns="http://www.w3.org/2000/svg">
<path d="M12.0027 24.0547C8.72266 24.0547 8.33599 24.0374 7.05599 23.9814C6.05782 23.9486 5.07257 23.7456 4.14266 23.3814C2.53374 22.7552 1.26151 21.4825 0.635988 19.8734C0.28573 18.9401 0.0968122 17.954 0.0773217 16.9574C0.00265503 15.68 0.00265503 15.2614 0.00265503 12.0067C0.00265503 8.71738 0.0199884 8.33338 0.0773217 7.06005C0.0972386 6.06474 0.28615 5.08006 0.635988 4.14805C1.26083 2.53675 2.53512 1.26294 4.14666 0.638714C5.07818 0.286984 6.06312 0.0975729 7.05866 0.0787139C8.33199 0.00671387 8.75066 0.00671387 12.0027 0.00671387C15.3093 0.00671387 15.6893 0.0240472 16.9493 0.0787139C17.9474 0.097736 18.935 0.287127 19.8693 0.638714C21.4804 1.26365 22.7544 2.53721 23.38 4.14805C23.7362 5.09364 23.9261 6.09372 23.9413 7.10405C24.016 8.38138 24.016 8.79871 24.016 12.052C24.016 15.3054 23.9973 15.732 23.9413 16.9947C23.9215 17.9923 23.7321 18.9793 23.3813 19.9134C22.7542 21.5237 21.4801 22.7968 19.8693 23.4227C18.9363 23.7723 17.9508 23.9612 16.9547 23.9814C15.6813 24.0547 15.264 24.0547 12.0027 24.0547ZM11.9573 2.11738C8.69599 2.11738 8.35732 2.13338 7.08399 2.19071C6.32397 2.20078 5.57129 2.34103 4.85865 2.60538C3.80633 3.00806 2.97362 3.83737 2.56666 4.88805C2.30027 5.60844 2.16 6.36935 2.15199 7.13738C2.08132 8.42938 2.08132 8.76805 2.08132 12.0067C2.08132 15.2067 2.09332 15.5947 2.15199 16.8787C2.16392 17.639 2.30412 18.3918 2.56666 19.1054C2.97422 20.1554 3.80678 20.984 4.85865 21.3867C5.57081 21.6528 6.32379 21.7931 7.08399 21.8014C8.37466 21.876 8.71466 21.876 11.9573 21.876C15.228 21.876 15.5667 21.86 16.8293 21.8014C17.5899 21.7921 18.3431 21.6518 19.056 21.3867C20.1019 20.9806 20.9292 20.1538 21.336 19.108C21.6019 18.387 21.7421 17.6258 21.7507 16.8574H21.7653C21.8227 15.5827 21.8227 15.2427 21.8227 11.9854C21.8227 8.72805 21.808 8.38538 21.7507 7.11205C21.7387 6.35265 21.5985 5.60073 21.336 4.88805C20.9302 3.84081 20.1028 3.01244 19.056 2.60538C18.3433 2.3397 17.5899 2.19941 16.8293 2.19071C15.54 2.11738 15.2027 2.11738 11.9573 2.11738ZM12.0027 18.1654C9.50931 18.167 7.26055 16.6664 6.30514 14.3633C5.34973 12.0603 5.87586 9.40849 7.63816 7.64466C9.40046 5.88084 12.0518 5.35241 14.3557 6.30582C16.6595 7.25924 18.1621 9.5067 18.1627 12C18.159 15.4015 15.4041 18.1588 12.0027 18.1654ZM12.0027 7.99738C9.79352 7.99738 8.00266 9.78824 8.00266 11.9974C8.00266 14.2065 9.79352 15.9974 12.0027 15.9974C14.2118 15.9974 16.0027 14.2065 16.0027 11.9974C15.9975 9.79037 14.2097 8.00251 12.0027 7.99738ZM18.4027 7.04672C17.6099 7.04377 16.9692 6.3995 16.9707 5.60672C16.9721 4.81395 17.6152 4.17206 18.408 4.17206C19.2008 4.17206 19.8438 4.81394 19.8453 5.60671C19.8457 5.9892 19.6937 6.35608 19.423 6.62628C19.1523 6.89649 18.7851 7.04778 18.4027 7.04672Z" fill="#282828"/>
</svg>
