<svg width="28" height="23" viewBox="0 0 28 23" fill="none" xmlns="http://www.w3.org/2000/svg">
<path d="M24.66 3.91736C25.8552 3.20281 26.7496 2.07767 27.176 0.752026C26.0529 1.41843 24.824 1.88786 23.5427 2.14003C21.7661 0.260729 18.9514 -0.196606 16.6712 1.02357C14.3911 2.24374 13.21 4.83934 13.788 7.36002C9.18748 7.12906 4.90129 4.95591 1.99601 1.38136C0.479792 3.99659 1.25461 7.33974 3.76667 9.02136C2.85828 8.99216 1.97004 8.74621 1.17601 8.30403C1.17601 8.32803 1.17601 8.35203 1.17601 8.37603C1.17653 11.1002 3.0965 13.4468 5.76667 13.9867C4.92409 14.2159 4.04028 14.2497 3.18267 14.0854C3.9336 16.4151 6.08074 18.0111 8.528 18.0587C6.50111 19.6495 3.99797 20.5122 1.42134 20.508C0.964633 20.5087 0.508286 20.4824 0.0546722 20.4294C2.67119 22.1107 5.7165 23.0032 8.82667 23C13.1537 23.0297 17.312 21.3239 20.3716 18.264C23.4312 15.2042 25.1367 11.0457 25.1067 6.71869C25.1067 6.47069 25.1009 6.22403 25.0893 5.97869C26.2099 5.16883 27.1771 4.16556 27.9453 3.01603C26.9014 3.47878 25.794 3.78259 24.66 3.91736Z" fill="#282828"/>
</svg>
